<?xml version="1.0" encoding="UTF-8"?>
<svg width="700pt" height="700pt" version="1.1" viewBox="0 0 700 700" xmlns="http://www.w3.org/2000/svg" xmlns:xlink="http://www.w3.org/1999/xlink">
 <defs>
  <symbol id="v" overflow="visible">
   <path d="m9.625-0.57812c-0.5 0.26172-1.0234 0.45312-1.5625 0.57812-0.53125 0.13281-1.0898 0.20312-1.6719 0.20312-1.75 0-3.1367-0.48438-4.1562-1.4531-1.0117-0.97656-1.5156-2.3008-1.5156-3.9688 0-1.6758 0.50391-3 1.5156-3.9688 1.0195-0.97656 2.4062-1.4688 4.1562-1.4688 0.58203 0 1.1406 0.070312 1.6719 0.20312 0.53906 0.125 1.0625 0.32031 1.5625 0.57812v2.1562c-0.5-0.33203-0.99609-0.57812-1.4844-0.73438-0.49219-0.16406-1-0.25-1.5312-0.25-0.96875 0-1.7305 0.3125-2.2812 0.9375-0.55469 0.61719-0.82812 1.4648-0.82812 2.5469 0 1.0742 0.27344 1.9219 0.82812 2.5469 0.55078 0.61719 1.3125 0.92188 2.2812 0.92188 0.53125 0 1.0391-0.078125 1.5312-0.23438 0.48828-0.16406 0.98438-0.41406 1.4844-0.75z"/>
  </symbol>
  <symbol id="c" overflow="visible">
   <path d="m7.0469-5.7188c-0.23047-0.10156-0.45312-0.17578-0.67188-0.21875-0.21094-0.050781-0.42188-0.078125-0.64062-0.078125-0.64844 0-1.1484 0.21094-1.5 0.625-0.34375 0.40625-0.51562 0.99609-0.51562 1.7656v3.625h-2.5156v-7.8594h2.5156v1.2969c0.32031-0.50781 0.69141-0.88281 1.1094-1.125 0.41406-0.23828 0.91406-0.35938 1.5-0.35938 0.082031 0 0.17188 0.007813 0.26562 0.015625 0.10156 0.011719 0.25 0.027344 0.4375 0.046875z"/>
  </symbol>
  <symbol id="a" overflow="visible">
   <path d="m9.0469-3.9531v0.71875h-5.875c0.0625 0.59375 0.27344 1.0391 0.64062 1.3281 0.36328 0.29297 0.875 0.4375 1.5312 0.4375 0.53125 0 1.0703-0.078125 1.625-0.23438 0.55078-0.15625 1.1172-0.39062 1.7031-0.70312v1.9219c-0.59375 0.23047-1.1875 0.40234-1.7812 0.51562-0.59375 0.11328-1.1875 0.17188-1.7812 0.17188-1.418 0-2.5234-0.35938-3.3125-1.0781-0.79297-0.72656-1.1875-1.7422-1.1875-3.0469 0-1.2812 0.38281-2.2852 1.1562-3.0156 0.78125-0.73828 1.8477-1.1094 3.2031-1.1094 1.2383 0 2.2266 0.375 2.9688 1.125 0.73828 0.74219 1.1094 1.7305 1.1094 2.9688zm-2.5781-0.82812c0-0.47656-0.14062-0.86328-0.42188-1.1562-0.28125-0.28906-0.64844-0.4375-1.0938-0.4375-0.48047 0-0.875 0.14062-1.1875 0.42188-0.30469 0.27344-0.49219 0.66406-0.5625 1.1719z"/>
  </symbol>
  <symbol id="k" overflow="visible">
   <path d="m4.7188-3.5312c-0.52344 0-0.91797 0.089844-1.1875 0.26562-0.26172 0.17969-0.39062 0.4375-0.39062 0.78125 0 0.32422 0.10156 0.57422 0.3125 0.75 0.21875 0.17969 0.51953 0.26562 0.90625 0.26562 0.46875 0 0.86328-0.16406 1.1875-0.5 0.32031-0.34375 0.48438-0.76953 0.48438-1.2812v-0.28125zm3.8438-0.95312v4.4844h-2.5312v-1.1562c-0.33594 0.46875-0.71484 0.8125-1.1406 1.0312-0.41797 0.21875-0.92969 0.32812-1.5312 0.32812-0.8125 0-1.4766-0.23438-1.9844-0.70312-0.51172-0.47656-0.76562-1.0977-0.76562-1.8594 0-0.91406 0.31641-1.5859 0.95312-2.0156 0.63281-0.4375 1.6289-0.65625 2.9844-0.65625h1.4844v-0.1875c0-0.39453-0.15625-0.6875-0.46875-0.875s-0.80469-0.28125-1.4688-0.28125c-0.54297 0-1.043 0.058594-1.5 0.17188-0.46094 0.10547-0.89062 0.26172-1.2969 0.46875v-1.9062c0.53906-0.13281 1.082-0.23438 1.625-0.29688 0.53906-0.070312 1.082-0.10938 1.625-0.10938 1.4141 0 2.4375 0.28125 3.0625 0.84375 0.63281 0.5625 0.95312 1.4688 0.95312 2.7188z"/>
  </symbol>
  <symbol id="b" overflow="visible">
   <path d="m3.9531-10.078v2.2188h2.5781v1.7969h-2.5781v3.3281c0 0.36719 0.066406 0.61719 0.20312 0.75 0.14453 0.125 0.4375 0.1875 0.875 0.1875h1.2812v1.7969h-2.1406c-1 0-1.7109-0.20312-2.125-0.60938-0.40625-0.41406-0.60938-1.125-0.60938-2.125v-3.3281h-1.25v-1.7969h1.25v-2.2188z"/>
  </symbol>
  <symbol id="f" overflow="visible">
   <path d="m6.5469-6.7031v-4.2031h2.5312v10.906h-2.5312v-1.1406c-0.34375 0.46875-0.72656 0.8125-1.1406 1.0312-0.41797 0.20703-0.89844 0.3125-1.4375 0.3125-0.96875 0-1.7656-0.38281-2.3906-1.1562-0.625-0.76953-0.9375-1.7578-0.9375-2.9688 0-1.207 0.3125-2.1953 0.9375-2.9688 0.625-0.76953 1.4219-1.1562 2.3906-1.1562 0.53906 0 1.0195 0.10938 1.4375 0.32812 0.41406 0.21875 0.79688 0.55859 1.1406 1.0156zm-1.6562 5.0781c0.53906 0 0.95312-0.19141 1.2344-0.57812 0.28125-0.39453 0.42188-0.96875 0.42188-1.7188s-0.14062-1.3164-0.42188-1.7031c-0.28125-0.39453-0.69531-0.59375-1.2344-0.59375-0.53125 0-0.9375 0.19922-1.2188 0.59375-0.28125 0.38672-0.42188 0.95312-0.42188 1.7031s0.14062 1.3242 0.42188 1.7188c0.28125 0.38672 0.6875 0.57812 1.2188 0.57812z"/>
  </symbol>
  <symbol id="j" overflow="visible">
   <path d="m5.3906-1.625c0.53125 0 0.9375-0.19141 1.2188-0.57812 0.28906-0.39453 0.4375-0.96875 0.4375-1.7188s-0.14844-1.3164-0.4375-1.7031c-0.28125-0.39453-0.6875-0.59375-1.2188-0.59375-0.54297 0-0.96094 0.19922-1.25 0.59375-0.28125 0.39844-0.42188 0.96484-0.42188 1.7031 0 0.75 0.14062 1.3242 0.42188 1.7188 0.28906 0.38672 0.70703 0.57812 1.25 0.57812zm-1.6719-5.0781c0.34375-0.45703 0.72266-0.79688 1.1406-1.0156 0.42578-0.21875 0.91016-0.32812 1.4531-0.32812 0.96875 0 1.7656 0.38672 2.3906 1.1562 0.625 0.77344 0.9375 1.7617 0.9375 2.9688 0 1.2109-0.3125 2.1992-0.9375 2.9688-0.625 0.77344-1.4219 1.1562-2.3906 1.1562-0.54297 0-1.0273-0.10938-1.4531-0.32812-0.41797-0.21875-0.79688-0.55469-1.1406-1.0156v1.1406h-2.5156v-10.906h2.5156z"/>
  </symbol>
  <symbol id="i" overflow="visible">
   <path d="m0.17188-7.8594h2.5156l2.1094 5.3281 1.7969-5.3281h2.5l-3.2969 8.6094c-0.33594 0.86328-0.72656 1.4688-1.1719 1.8125-0.4375 0.35156-1.0156 0.53125-1.7344 0.53125h-1.4531v-1.6406h0.78125c0.42578 0 0.73438-0.070313 0.92188-0.20312 0.19531-0.13672 0.35156-0.38281 0.46875-0.73438l0.0625-0.21875z"/>
  </symbol>
  <symbol id="e" overflow="visible">
   <path d="m7.5469-7.6094v2.0469c-0.33594-0.22656-0.67188-0.39844-1.0156-0.51562-0.34375-0.11328-0.70312-0.17188-1.0781-0.17188-0.69922 0-1.2461 0.21094-1.6406 0.625-0.38672 0.40625-0.57812 0.97656-0.57812 1.7031 0 0.74219 0.19141 1.3125 0.57812 1.7188 0.39453 0.40625 0.94141 0.60938 1.6406 0.60938 0.39453 0 0.76953-0.054688 1.125-0.17188 0.35156-0.11328 0.67578-0.28516 0.96875-0.51562v2.0469c-0.38672 0.14844-0.78125 0.25391-1.1875 0.32812-0.40625 0.070312-0.8125 0.10938-1.2188 0.10938-1.418 0-2.5273-0.36328-3.3281-1.0938-0.80469-0.72656-1.2031-1.7383-1.2031-3.0312 0-1.2891 0.39844-2.3008 1.2031-3.0312 0.80078-0.72656 1.9102-1.0938 3.3281-1.0938 0.40625 0 0.80469 0.039063 1.2031 0.10938 0.40625 0.074219 0.80469 0.18359 1.2031 0.32812z"/>
  </symbol>
  <symbol id="d" overflow="visible">
   <path d="m4.9375-6.25c-0.55469 0-0.97656 0.20312-1.2656 0.60938-0.29297 0.39844-0.4375 0.96875-0.4375 1.7188s0.14453 1.3281 0.4375 1.7344c0.28906 0.39844 0.71094 0.59375 1.2656 0.59375 0.55078 0 0.96875-0.19531 1.25-0.59375 0.28906-0.40625 0.4375-0.98438 0.4375-1.7344s-0.14844-1.3203-0.4375-1.7188c-0.28125-0.40625-0.69922-0.60938-1.25-0.60938zm0-1.7969c1.3516 0 2.4102 0.36719 3.1719 1.0938 0.75781 0.73047 1.1406 1.7422 1.1406 3.0312 0 1.293-0.38281 2.3047-1.1406 3.0312-0.76172 0.73047-1.8203 1.0938-3.1719 1.0938-1.3555 0-2.418-0.36328-3.1875-1.0938-0.76172-0.72656-1.1406-1.7383-1.1406-3.0312 0-1.2891 0.37891-2.3008 1.1406-3.0312 0.76953-0.72656 1.832-1.0938 3.1875-1.0938z"/>
  </symbol>
  <symbol id="u" overflow="visible">
   <path d="m3.7188-1.1406v4.125h-2.5156v-10.844h2.5156v1.1562c0.34375-0.45703 0.72266-0.79688 1.1406-1.0156 0.42578-0.21875 0.91016-0.32812 1.4531-0.32812 0.96875 0 1.7656 0.38672 2.3906 1.1562 0.625 0.77344 0.9375 1.7617 0.9375 2.9688 0 1.2109-0.3125 2.1992-0.9375 2.9688-0.625 0.77344-1.4219 1.1562-2.3906 1.1562-0.54297 0-1.0273-0.10938-1.4531-0.32812-0.41797-0.21875-0.79688-0.55469-1.1406-1.0156zm1.6719-5.0781c-0.54297 0-0.96094 0.19922-1.25 0.59375-0.28125 0.39844-0.42188 0.96484-0.42188 1.7031 0 0.75 0.14062 1.3242 0.42188 1.7188 0.28906 0.38672 0.70703 0.57812 1.25 0.57812 0.53125 0 0.9375-0.19141 1.2188-0.57812 0.28906-0.39453 0.4375-0.96875 0.4375-1.7188s-0.14844-1.3164-0.4375-1.7031c-0.28125-0.39453-0.6875-0.59375-1.2188-0.59375z"/>
  </symbol>
  <symbol id="h" overflow="visible">
   <path d="m1.125-3.0625v-4.7969h2.5156v0.79688c0 0.42969-0.007813 0.96484-0.015625 1.6094v1.2812c0 0.625 0.015625 1.0781 0.046875 1.3594 0.039063 0.28125 0.097656 0.48438 0.17188 0.60938 0.10156 0.15625 0.23828 0.28125 0.40625 0.375 0.16406 0.085937 0.35938 0.125 0.57812 0.125 0.51953 0 0.92578-0.19531 1.2188-0.59375 0.30078-0.40625 0.45312-0.96094 0.45312-1.6719v-3.8906h2.5156v7.8594h-2.5156v-1.1406c-0.375 0.46094-0.77734 0.79688-1.2031 1.0156-0.41797 0.21875-0.88281 0.32812-1.3906 0.32812-0.90625 0-1.6016-0.27344-2.0781-0.82812-0.46875-0.5625-0.70312-1.375-0.70312-2.4375z"/>
  </symbol>
  <symbol id="t" overflow="visible">
   <path d="m7.3438-7.6094v1.9062c-0.54297-0.21875-1.0625-0.38281-1.5625-0.5-0.5-0.11328-0.96875-0.17188-1.4062-0.17188-0.48047 0-0.83984 0.0625-1.0781 0.1875-0.23047 0.11719-0.34375 0.29688-0.34375 0.54688 0 0.19922 0.085937 0.35547 0.26562 0.46875 0.17578 0.10547 0.49219 0.18359 0.95312 0.23438l0.4375 0.0625c1.2812 0.15625 2.1406 0.42188 2.5781 0.79688 0.44531 0.375 0.67188 0.96484 0.67188 1.7656 0 0.83594-0.30859 1.4648-0.92188 1.8906-0.61719 0.41797-1.5391 0.625-2.7656 0.625-0.51172 0-1.0469-0.042969-1.6094-0.125-0.55469-0.082031-1.1211-0.20312-1.7031-0.35938v-1.9062c0.5 0.24219 1.0078 0.42188 1.5312 0.54688 0.53125 0.11719 1.0664 0.17188 1.6094 0.17188 0.48828 0 0.85938-0.066406 1.1094-0.20312 0.25-0.13281 0.375-0.33203 0.375-0.59375 0-0.22656-0.089844-0.39453-0.26562-0.5-0.16797-0.11328-0.50781-0.20312-1.0156-0.26562l-0.4375-0.046875c-1.1172-0.14453-1.8984-0.40625-2.3438-0.78125-0.44922-0.38281-0.67188-0.96094-0.67188-1.7344 0-0.83203 0.28125-1.4453 0.84375-1.8438 0.57031-0.40625 1.4453-0.60938 2.625-0.60938 0.46875 0 0.95312 0.039063 1.4531 0.10938 0.50781 0.074219 1.0664 0.18359 1.6719 0.32812z"/>
  </symbol>
  <symbol id="s" overflow="visible">
   <path d="m1.2031-10.906h2.5156v10.906h-2.5156z"/>
  </symbol>
  <symbol id="g" overflow="visible">
   <path d="m1.2031-7.8594h2.5156v7.8594h-2.5156zm0-3.0469h2.5156v2.0469h-2.5156z"/>
  </symbol>
  <symbol id="r" overflow="visible">
   <path d="m6.375-10.906v1.6406h-1.3906c-0.35547 0-0.60547 0.070313-0.75 0.20312-0.13672 0.125-0.20312 0.34375-0.20312 0.65625v0.54688h2.1406v1.7969h-2.1406v6.0625h-2.5156v-6.0625h-1.2344v-1.7969h1.2344v-0.54688c0-0.85156 0.23828-1.4844 0.71875-1.8906 0.47656-0.40625 1.2188-0.60938 2.2188-0.60938z"/>
  </symbol>
  <symbol id="q" overflow="visible">
   <path d="m8.4844-6.5469c0.3125-0.48828 0.6875-0.85938 1.125-1.1094 0.4375-0.25781 0.92188-0.39062 1.4531-0.39062 0.89453 0 1.5781 0.28125 2.0469 0.84375 0.47656 0.55469 0.71875 1.3594 0.71875 2.4219v4.7812h-2.5312v-4.0938c0.007813-0.0625 0.015625-0.125 0.015625-0.1875v-0.28125c0-0.5625-0.085938-0.96875-0.25-1.2188-0.15625-0.25-0.41797-0.375-0.78125-0.375-0.48047 0-0.85156 0.19922-1.1094 0.59375-0.26172 0.39844-0.39844 0.96484-0.40625 1.7031v3.8594h-2.5156v-4.0938c0-0.875-0.078125-1.4375-0.23438-1.6875-0.14844-0.25-0.41406-0.375-0.79688-0.375-0.48047 0-0.85156 0.19922-1.1094 0.59375-0.26172 0.39844-0.39062 0.96484-0.39062 1.7031v3.8594h-2.5312v-7.8594h2.5312v1.1562c0.30078-0.44531 0.64844-0.78125 1.0469-1 0.40625-0.22656 0.84766-0.34375 1.3281-0.34375 0.53906 0 1.0195 0.13672 1.4375 0.40625 0.41406 0.26172 0.73438 0.625 0.95312 1.0938z"/>
  </symbol>
  <symbol id="p" overflow="visible">
   <path d="m9.0938-4.7812v4.7812h-2.5156v-3.6406c0-0.6875-0.015625-1.1602-0.046875-1.4219-0.03125-0.25781-0.085938-0.44531-0.15625-0.5625-0.10547-0.16406-0.24219-0.29688-0.40625-0.39062-0.16797-0.09375-0.35547-0.14062-0.5625-0.14062-0.53125 0-0.94922 0.20312-1.25 0.60938-0.29297 0.40625-0.4375 0.96875-0.4375 1.6875v3.8594h-2.5156v-10.906h2.5156v4.2031c0.375-0.45703 0.77344-0.79688 1.2031-1.0156 0.42578-0.21875 0.89453-0.32812 1.4062-0.32812 0.90625 0 1.5938 0.28125 2.0625 0.84375 0.46875 0.55469 0.70312 1.3594 0.70312 2.4219z"/>
  </symbol>
  <symbol id="o" overflow="visible">
   <path d="m1.3125-10.469h3.0156l3.8125 7.1875v-7.1875h2.5625v10.469h-3.0156l-3.8125-7.1875v7.1875h-2.5625z"/>
  </symbol>
  <symbol id="n" overflow="visible">
   <path d="m9.0938-4.7812v4.7812h-2.5156v-3.6562c0-0.67578-0.015625-1.1445-0.046875-1.4062-0.03125-0.25781-0.085938-0.44531-0.15625-0.5625-0.10547-0.16406-0.24219-0.29688-0.40625-0.39062-0.16797-0.09375-0.35547-0.14062-0.5625-0.14062-0.53125 0-0.94922 0.20312-1.25 0.60938-0.29297 0.40625-0.4375 0.96875-0.4375 1.6875v3.8594h-2.5156v-7.8594h2.5156v1.1562c0.375-0.45703 0.77344-0.79688 1.2031-1.0156 0.42578-0.21875 0.89453-0.32812 1.4062-0.32812 0.90625 0 1.5938 0.28125 2.0625 0.84375 0.46875 0.55469 0.70312 1.3594 0.70312 2.4219z"/>
  </symbol>
  <symbol id="m" overflow="visible">
   <path d="m1.3125-10.469h4.4844c1.332 0 2.3516 0.29688 3.0625 0.89062 0.71875 0.59375 1.0781 1.4375 1.0781 2.5312s-0.35938 1.9375-1.0781 2.5312c-0.71094 0.59375-1.7305 0.89062-3.0625 0.89062h-1.7812v3.625h-2.7031zm2.7031 1.9531v2.9219h1.5c0.51953 0 0.92188-0.125 1.2031-0.375 0.28906-0.25781 0.4375-0.61719 0.4375-1.0781 0-0.46875-0.14844-0.82812-0.4375-1.0781-0.28125-0.25781-0.68359-0.39062-1.2031-0.39062z"/>
  </symbol>
  <symbol id="l" overflow="visible">
   <path d="m1.2031-7.8594h2.5156v7.7188c0 1.0508-0.25781 1.8516-0.76562 2.4062-0.5 0.55078-1.2305 0.82812-2.1875 0.82812h-1.25v-1.6406h0.4375c0.47656 0 0.80469-0.10938 0.98438-0.32812 0.17578-0.21094 0.26562-0.63281 0.26562-1.2656zm0-3.0469h2.5156v2.0469h-2.5156z"/>
  </symbol>
 </defs>
 <g>
  <path d="m391.4 449.97v-78.805h-49.695v78.805h-54.891l80.676 95.207 80.676-95.207z"/>
  <path d="m525.74 172.65v-42.344c0-2.2188-0.92969-4.4727-2.4883-6.0547l-103.16-104.48c-1.3438-1.6797-4.0625-2.5586-6.1289-2.5586h-197.29c-4.7578 0-8.6172 3.8555-8.6172 8.6172v146.82h-27.066v171.07h27.066v72.461c0 4.7617 3.8555 8.6172 8.6172 8.6172h110.66v-17.23l-102.05-0.003906v-63.848h283.21v63.848h-102.75v17.23h111.37c4.7578 0 8.6172-3.8555 8.6172-8.6172v-72.461h26.156v-171.07zm-103.16-125.84 73.914 74.887h-73.914zm-117.1 236.32c5.2852 0 11.141-1.1484 14.59-2.5273l2.6406 13.668c-3.2148 1.6094-10.449 3.332-19.867 3.332-26.762 0-40.543-16.652-40.543-38.707 0-26.418 18.836-41.117 42.266-41.117 9.0742 0 15.965 1.8398 19.066 3.4453l-3.5625 13.898c-3.5625-1.4922-8.5-2.8711-14.699-2.8711-13.898 0-24.695 8.3867-24.695 25.613 0 15.5 9.1875 25.266 24.805 25.266zm53.418 14.469c-8.8438 0-17.574-2.3008-21.938-4.7109l3.5625-14.473c4.7109 2.4141 11.945 4.8203 19.41 4.8203 8.043 0 12.289-3.3281 12.289-8.3828 0-4.8242-3.6758-7.582-12.98-10.91-12.863-4.4805-21.25-11.602-21.25-22.855 0-13.207 11.023-23.316 29.289-23.316 8.7266 0 15.16 1.8398 19.754 3.9062l-3.9023 14.125c-3.1016-1.4922-8.6172-3.6758-16.195-3.6758-7.582 0-11.254 3.4453-11.254 7.4648 0 4.9414 4.3633 7.1211 14.355 10.914 13.668 5.0508 20.102 12.172 20.102 23.086 0 12.98-9.9922 24.008-31.242 24.008zm87.527-1.1484h-20.441l-24.809-77.41h19.18l9.418 32.734c2.6406 9.1914 5.0547 18.031 6.8906 27.68h0.34375c1.9531-9.3047 4.3633-18.492 7.0039-27.336l9.875-33.078h18.605zm62.082-123.8h-283.21v-138.2h180.05v95.855c0 4.7578 3.8555 8.6172 8.6172 8.6172h94.547z"/>
   </g>
</svg>
