<?xml version="1.0" encoding="UTF-8"?>
<svg width="700pt" height="700pt" version="1.1" viewBox="0 0 700 700" xmlns="http://www.w3.org/2000/svg">
 <g>
  <path d="m116.67 455c0 20.84 11.117 40.098 29.164 50.52 18.051 10.418 40.285 10.418 58.336 0 18.047-10.422 29.164-29.68 29.164-50.52v-350c0-20.84-11.117-40.098-29.164-50.52-18.051-10.418-40.285-10.418-58.336 0-18.047 10.422-29.164 29.68-29.164 50.52z"/>
  <path d="m291.67 175v280c0 20.84 11.117 40.098 29.164 50.52 18.051 10.418 40.285 10.418 58.336 0 18.047-10.422 29.164-29.68 29.164-50.52v-280c0-20.84-11.117-40.098-29.164-50.52-18.051-10.418-40.285-10.418-58.336 0-18.047 10.422-29.164 29.68-29.164 50.52z"/>
  <path d="m466.67 268.33v186.67c0 20.84 11.117 40.098 29.164 50.52 18.051 10.418 40.285 10.418 58.336 0 18.047-10.422 29.164-29.68 29.164-50.52v-186.67c0-20.84-11.117-40.098-29.164-50.516-18.051-10.422-40.285-10.422-58.336 0-18.047 10.418-29.164 29.676-29.164 50.516z"/>
 </g>
</svg>
