<?xml version="1.0" encoding="UTF-8"?>
<svg width="700pt" height="700pt" version="1.1" viewBox="0 0 700 700" xmlns="http://www.w3.org/2000/svg">
 <g fill-rule="evenodd">
  <path d="m262.5 280c-42.125 0-77.551 30.195-85.723 70h-54.277c-4.6406 0-9.0938 1.8438-12.375 5.125s-5.125 7.7344-5.125 12.375 1.8438 9.0938 5.125 12.375 7.7344 5.125 12.375 5.125h54.277c8.1719 39.805 43.598 70 85.723 70s77.551-30.195 85.723-70h229.28c4.6406 0 9.0938-1.8438 12.375-5.125s5.125-7.7344 5.125-12.375-1.8438-9.0938-5.125-12.375-7.7344-5.125-12.375-5.125h-229.28c-8.1719-39.805-43.598-70-85.723-70z"/>
  <path d="m437.5 105c-42.125 0-77.551 30.195-85.723 70h-229.28c-4.6406 0-9.0938 1.8438-12.375 5.125s-5.125 7.7344-5.125 12.375 1.8438 9.0938 5.125 12.375 7.7344 5.125 12.375 5.125h229.28c8.1719 39.805 43.598 70 85.723 70s77.551-30.195 85.723-70h54.277c4.6406 0 9.0938-1.8438 12.375-5.125s5.125-7.7344 5.125-12.375-1.8438-9.0938-5.125-12.375-7.7344-5.125-12.375-5.125h-54.277c-8.1719-39.805-43.598-70-85.723-70z"/>
 </g>
</svg>
